<svg xmlns="http://www.w3.org/2000/svg" viewBox="0 0 64 64">
  <defs>
    <linearGradient id="gb" x1="0" y1="0" x2="1" y2="1">
      <stop offset="0%" stop-color="#2DA8E0"/><stop offset="100%" stop-color="#1450E0"/>
    </linearGradient>
    <linearGradient id="gp" x1="0" y1="0" x2="1" y2="1">
      <stop offset="0%" stop-color="#6C5CE7"/><stop offset="100%" stop-color="#3B2FD4"/>
    </linearGradient>
    <linearGradient id="gg" x1="0" y1="1" x2="1" y2="0">
      <stop offset="0%" stop-color="#F5AE13"/><stop offset="100%" stop-color="#F8C84B"/>
    </linearGradient>
  </defs>
  <rect width="64" height="64" rx="14" fill="#000E28"/>
  <path d="M32 10C22 10 15 17 13 26c-1 4 0 8 2 10-2 2-3 4-2 7 1 3 4 5 6 6 1 2 3 4 5 5 2 1 4 1 6 0V12c-1-1-2-2-2-2z" fill="url(#gb)"/>
  <path d="M20 41c-2-1-5-3-6-6-1-3 0-5 2-7-2-2-3-6-2-10 0 0-2 3-2 9 0 6 3 11 7 14 2 1 3 1 5 1v-1c-2 0-3-0-4-0z" fill="url(#gg)"/>
  <path d="M32 10c10 0 17 7 19 16 1 4 0 8-2 10 2 2 3 4 2 7-1 3-4 5-6 6-1 2-3 4-5 5-2 1-4 1-6 0V12c1-1 2-2 2-2z" fill="url(#gp)"/>
</svg>
